<svg width="879" height="880" viewBox="0 0 879 880" fill="none" xmlns="http://www.w3.org/2000/svg">
<g filter="url(#filter0_d_4_6748)">
<circle cx="439.5" cy="439.972" r="254" stroke="#00C4F0" stroke-width="67" shape-rendering="crispEdges"/>
</g>
<circle cx="216" cy="229" r="45" fill="url(#paint0_linear_4_6748)"/>
<path d="M185 395C185 419.853 164.853 440 140 440C115.147 440 95 419.853 95 395C95 370.147 115.147 350 140 350C164.853 350 185 370.147 185 395Z" fill="url(#paint1_linear_4_6748)"/>
<circle cx="614" cy="197" r="45" fill="url(#paint2_linear_4_6748)"/>
<circle cx="171" cy="583" r="45" fill="url(#paint3_linear_4_6748)"/>
<path d="M131.062 387.516L128.422 391.125C127.266 390.266 125.938 389.812 124.438 389.812C120.484 389.812 117.781 392.875 117.781 396.797C117.781 400.531 120.422 403.719 124.438 403.719C127.688 403.719 130.438 401.672 131.078 397.891H124.047V393.578H135.375C135.672 394.594 135.812 395.688 135.812 396.797C135.812 403.094 130.891 408 124.438 408C118.234 408 113.016 403.312 113.016 396.797C113.016 390.516 117.969 385.578 124.438 385.578C126.891 385.578 129.156 386.219 131.062 387.516ZM138.953 408V385.594H143.641V408H138.953ZM146.703 385.594H166.125V389.922H158.75V408H154.062V389.922H146.703V385.594Z" fill="#00C4F0"/>
<path d="M196.055 227.795V233.104L211.102 240.451V234.949L201.135 230.449L211.102 225.967V220.465L196.055 227.795ZM230.314 212.977L214.266 248.045H219.803L235.852 212.977H230.314Z" fill="#00C4F0"/>
<path d="M580.086 207H576.582V190.207H584.797C586.227 190.207 587.211 190.477 588.02 190.992C589.379 191.824 590.258 193.312 590.258 195.234C590.258 196.324 589.953 197.309 589.402 198.105C588.816 198.961 588.031 199.5 587.141 199.805L586.988 199.863L591.254 207H587.223L583.25 200.215H580.086V207ZM580.086 197.004H584.34C585.008 197.004 585.324 196.969 585.617 196.84C586.273 196.57 586.801 196.031 586.801 195.234C586.801 194.449 586.297 193.887 585.617 193.617C585.336 193.488 585.02 193.441 584.328 193.441H580.086V197.004ZM593.105 190.195H604.93V193.43H596.621V196.195H602.961V199.395H596.621V203.766H604.93V207H593.105V190.195ZM619.133 207L618.078 204.199H610.66L609.629 207H605.984L612.652 190.207H616.121L622.777 207H619.133ZM614.387 194.297L611.867 201.023H616.871L614.387 194.297ZM639.535 195.961L636.219 197.039C635.516 194.754 633.781 193.383 631.414 193.383C628.473 193.383 626.457 195.656 626.457 198.598C626.457 201.398 628.426 203.789 631.414 203.789C633.77 203.789 635.504 202.441 636.23 200.074L639.57 201.105C638.562 204.633 635.258 207 631.414 207C626.738 207 622.848 203.402 622.848 198.598C622.848 193.887 626.562 190.184 631.414 190.184C635.129 190.184 638.41 192.223 639.535 195.961ZM640.027 190.195H654.594V193.441H649.062V207H645.547V193.441H640.027V190.195Z" fill="#00C4F0"/>
<path d="M151.842 595.963L154.355 591.34C154.795 591.621 155.287 591.727 155.85 591.727C157.238 591.727 158.311 590.777 158.627 589.705C158.768 589.248 158.82 588.615 158.82 587.701V571.793H164.076V586.348C164.076 588.844 163.988 589.934 163.725 590.953C162.881 594.346 159.752 597 155.85 597C154.426 597 153.055 596.648 151.842 595.963ZM167.609 592.641L170.773 588.861C172.865 590.777 175.502 592.113 178.262 592.113C180.406 592.113 182.797 591.234 182.797 589.301C182.797 586.945 179.158 586.646 175.449 585.873C171.23 584.994 167.855 583.236 167.855 579.193C167.855 575.062 171.072 571.775 176.82 571.775C180.002 571.775 183.324 572.848 186.119 575.045L183.131 578.789C181.461 577.383 179.018 576.539 176.75 576.539C174.904 576.539 172.953 577.207 172.953 578.719C172.953 580.371 175.027 580.846 178.596 581.443C182.832 582.146 187.965 583.57 187.965 589.283C187.965 593.73 183.764 597 178.35 597C174.992 597 171.107 595.77 167.609 592.641Z" fill="#00C4F0"/>
<defs>
<filter id="filter0_d_4_6748" x="0" y="0.47229" width="879" height="879" filterUnits="userSpaceOnUse" color-interpolation-filters="sRGB">
<feFlood flood-opacity="0" result="BackgroundImageFix"/>
<feColorMatrix in="SourceAlpha" type="matrix" values="0 0 0 0 0 0 0 0 0 0 0 0 0 0 0 0 0 0 127 0" result="hardAlpha"/>
<feOffset/>
<feGaussianBlur stdDeviation="76"/>
<feComposite in2="hardAlpha" operator="out"/>
<feColorMatrix type="matrix" values="0 0 0 0 0 0 0 0 0 0.768627 0 0 0 0 0.941176 0 0 0 0.42 0"/>
<feBlend mode="normal" in2="BackgroundImageFix" result="effect1_dropShadow_4_6748"/>
<feBlend mode="normal" in="SourceGraphic" in2="effect1_dropShadow_4_6748" result="shape"/>
</filter>
<linearGradient id="paint0_linear_4_6748" x1="171" y1="184" x2="267.755" y2="267.157" gradientUnits="userSpaceOnUse">
<stop stop-color="#414141"/>
<stop offset="1" stop-color="#2D2D2D"/>
</linearGradient>
<linearGradient id="paint1_linear_4_6748" x1="95" y1="350" x2="191.755" y2="433.157" gradientUnits="userSpaceOnUse">
<stop stop-color="#414141"/>
<stop offset="1" stop-color="#2D2D2D"/>
</linearGradient>
<linearGradient id="paint2_linear_4_6748" x1="569" y1="152" x2="665.755" y2="235.157" gradientUnits="userSpaceOnUse">
<stop stop-color="#414141"/>
<stop offset="1" stop-color="#2D2D2D"/>
</linearGradient>
<linearGradient id="paint3_linear_4_6748" x1="126" y1="538" x2="222.755" y2="621.157" gradientUnits="userSpaceOnUse">
<stop stop-color="#414141"/>
<stop offset="1" stop-color="#2D2D2D"/>
</linearGradient>
</defs>
</svg>
