<svg width="137" height="137" viewBox="0 0 137 137" fill="none" xmlns="http://www.w3.org/2000/svg">
<path d="M109.828 17.125H27.1717C24.5071 17.125 21.9517 18.1835 20.0676 20.0676C18.1835 21.9517 17.125 24.5071 17.125 27.1717V109.828C17.125 112.493 18.1835 115.048 20.0676 116.932C21.9517 118.817 24.5071 119.875 27.1717 119.875H109.828C111.148 119.875 112.454 119.615 113.673 119.11C114.892 118.605 115.999 117.865 116.932 116.932C117.865 115.999 118.605 114.892 119.11 113.673C119.615 112.454 119.875 111.148 119.875 109.828V27.1717C119.875 25.8523 119.615 24.5459 119.11 23.327C118.605 22.1081 117.865 21.0005 116.932 20.0676C115.999 19.1347 114.892 18.3946 113.673 17.8898C112.454 17.3849 111.148 17.125 109.828 17.125ZM76.72 74.2083H63.8762V110.97H53.6583V74.2083H40.8146V65.8742H76.72V74.2083ZM109.828 104.348C109.002 106.105 107.67 107.576 106.004 108.573C104.25 109.652 102.317 110.406 100.295 110.799C98.042 111.264 95.7463 111.494 93.4454 111.484C91.0911 111.482 88.7415 111.272 86.4242 110.856C84.4545 110.452 82.5387 109.82 80.7158 108.972V99.2108L80.3733 98.8683H80.7158V99.2679C82.4328 100.607 84.3624 101.649 86.4242 102.35C88.4831 103.134 90.6717 103.522 92.8746 103.492C94.0257 103.512 95.1752 103.397 96.2996 103.15C97.1441 102.952 97.9529 102.625 98.6971 102.179C99.2797 101.824 99.769 101.335 100.124 100.752C100.476 100.089 100.63 99.3384 100.569 98.59C100.509 97.8416 100.235 97.1261 99.7817 96.5279C99.245 95.7756 98.5663 95.1356 97.7837 94.6442C96.8335 93.976 95.8202 93.4025 94.7583 92.9317L90.9338 91.3333C87.9062 90.0864 85.2237 88.1284 83.1133 85.625C81.3472 83.496 80.4141 80.7982 80.4875 78.0329C80.421 75.9322 80.8926 73.8493 81.8575 71.9821C82.7783 70.3545 84.0689 68.9662 85.625 67.9292C87.3588 66.7757 89.2959 65.9621 91.3333 65.5317C93.5607 65.019 95.8407 64.77 98.1263 64.7896C100.208 64.7605 102.288 64.8941 104.348 65.1892C106.063 65.4572 107.746 65.897 109.372 66.5021V75.9208C108.62 75.3852 107.817 74.9263 106.974 74.5508C106.066 74.1602 105.132 73.8358 104.177 73.5804C103.262 73.3126 102.327 73.1217 101.38 73.0096C100.507 72.9272 99.6275 72.9272 98.7542 73.0096C97.6786 72.9918 96.6049 73.1068 95.5575 73.3521C94.6983 73.5323 93.8709 73.8401 93.1029 74.2654C92.5035 74.6186 91.9952 75.1074 91.6187 75.6925C91.2771 76.261 91.0993 76.913 91.105 77.5763C91.0911 78.2843 91.2899 78.9803 91.6758 79.5742C92.1447 80.2225 92.7245 80.7829 93.3883 81.2296C94.1932 81.8703 95.0754 82.4073 96.0142 82.8279L99.6104 84.4263C101.264 85.1098 102.866 85.9111 104.405 86.8238C105.759 87.5644 106.991 88.5076 108.059 89.6208C109.105 90.6349 109.923 91.8611 110.456 93.2171C111.004 94.7754 111.274 96.4176 111.255 98.0692C111.215 100.201 110.728 102.301 109.828 104.234V104.348Z" fill="#00C4F0"/>
</svg>
