<svg width="89" height="89" viewBox="0 0 89 89" fill="none" xmlns="http://www.w3.org/2000/svg">
<path d="M44.5 48.3196C48.1558 48.3196 51.1194 45.356 51.1194 41.7002C51.1194 38.0444 48.1558 35.0808 44.5 35.0808C40.8442 35.0808 37.8806 38.0444 37.8806 41.7002C37.8806 45.356 40.8442 48.3196 44.5 48.3196Z" fill="#00C4F0"/>
<path d="M25.9657 54.8611L24.501 54.4865C13.6207 51.7386 7.37958 47.0661 7.37958 41.6854C7.37958 36.3009 13.6244 31.6321 24.501 28.8842L25.9657 28.5134L26.3774 29.9633C27.477 33.7595 28.886 37.4592 30.59 41.0253L30.9052 41.6854L30.59 42.3454C28.8842 45.9166 27.4713 49.6175 26.3774 53.4148L25.9657 54.8611ZM23.826 32.2588C15.5602 34.5876 10.4835 38.1402 10.4835 41.6854C10.4835 45.2231 15.5565 48.7794 23.826 51.1045C24.8384 47.8857 26.0622 44.7373 27.4787 41.6854C26.0519 38.6283 24.8316 35.4791 23.826 32.2588ZM63.0305 54.8611L62.6226 53.4074C61.52 49.6104 60.1099 45.9096 58.4062 42.3417L58.091 41.6854L58.4062 41.0216C60.1121 37.4579 61.5175 33.7532 62.6226 29.9559L63.0305 28.5096L64.4953 28.8805C75.3793 31.6284 81.6167 36.2971 81.6167 41.6854C81.6167 47.0699 75.3756 51.7386 64.4953 54.4865L63.0305 54.8611ZM61.5101 41.6854C62.9935 44.8968 64.2283 48.0563 65.1702 51.1045C73.4398 48.7794 78.5165 45.2231 78.5165 41.6854C78.5165 38.1402 73.4435 34.5913 65.1702 32.2588C64.1589 35.4781 62.9362 38.6271 61.5101 41.6854Z" fill="#00C4F0"/>
<path d="M23.8038 32.2439L23.3959 30.7977C20.3328 20.0139 21.2599 12.2894 25.9435 9.59714C30.5233 6.94568 37.8918 10.0792 45.6088 17.9965L46.662 19.0793L45.6088 20.1585C42.8679 23.009 40.3627 26.0772 38.118 29.3329L37.6989 29.9336L36.9721 29.993C33.0249 30.303 29.1095 30.9343 25.2649 31.8805L23.8038 32.2439ZM29.6704 11.7406C28.8397 11.7406 28.1055 11.9223 27.4862 12.2783C24.4157 14.0471 23.8743 20.2067 25.988 28.5208C29.2921 27.7902 32.6259 27.2674 35.9857 26.9744C37.9308 24.2156 40.0527 21.5858 42.3381 19.1016C37.5061 14.4031 32.9448 11.7406 29.6704 11.7406ZM59.3259 74.7229C54.9204 74.7229 49.2615 71.4002 43.3875 65.3705L42.3381 64.2913L43.3875 63.2159C46.1289 60.3608 48.6352 57.289 50.8821 54.0304L51.2974 53.4371L52.0168 53.3666C55.9654 53.0621 59.8822 52.4333 63.7277 51.4865L65.1925 51.1156L65.6041 52.5656C68.6524 63.342 67.729 71.0776 63.0528 73.7698C61.9174 74.4134 60.6309 74.7424 59.3259 74.7229ZM46.662 64.2654C51.4902 68.9638 56.0552 71.6301 59.3259 71.6301C60.1603 71.6301 60.8946 71.4447 61.5101 71.0924C64.5843 69.3198 65.1295 63.1492 63.0083 54.8351C59.7079 55.5693 56.3704 56.0959 53.0032 56.3889C51.0664 59.152 48.948 61.7834 46.662 64.2654Z" fill="#00C4F0"/>
<path d="M65.1925 32.244L63.7277 31.8768C59.8824 30.9276 55.9656 30.2963 52.0168 29.9893L51.2974 29.9262L50.882 29.3255C48.6383 26.068 46.1318 22.9997 43.3875 20.1511L42.338 19.072L43.3875 17.9965C51.1008 10.083 58.4656 6.94941 63.0528 9.59716C67.7327 12.2931 68.6635 20.0176 65.6041 30.7977L65.1925 32.244ZM53.0032 26.9744C56.541 27.2896 59.8933 27.8199 63.0083 28.5208C65.1258 20.2067 64.5843 14.0472 61.5101 12.2746C58.4545 10.5057 52.7028 13.2128 46.662 19.1016C48.9463 21.5862 51.0675 24.2117 53.0032 26.9744ZM29.6704 74.7229C28.3655 74.7415 27.0792 74.4126 25.9435 73.7699C21.2599 71.0776 20.3328 63.3457 23.3922 52.5656L23.7927 51.1157L25.2575 51.4865C28.8323 52.3876 32.7705 53.0217 36.9684 53.3666L37.6878 53.4371L38.1068 54.0304C40.3467 57.2863 42.8535 60.3605 45.5977 63.216L46.6508 64.2914L45.5977 65.3705C39.7274 71.404 34.0685 74.7229 29.6704 74.7229ZM25.988 54.8388C23.8743 63.1529 24.4157 69.3236 27.4862 71.0962C30.5455 72.8391 36.2786 70.1505 42.338 64.2654C40.0535 61.7804 37.9317 59.1507 35.9857 56.3926C32.6226 56.0952 29.2827 55.5761 25.988 54.8388Z" fill="#00C4F0"/>
<path d="M44.5 56.7857C41.9524 56.7857 39.338 56.6782 36.7125 56.4594L35.9857 56.3964L35.5666 55.7956C34.0861 53.6666 32.6931 51.4781 31.3911 49.2356C30.0987 46.9869 28.8974 44.6871 27.7903 42.3418L27.4788 41.6854L27.7903 41.0216C28.8991 38.6779 30.0968 36.3788 31.3911 34.1315C32.6778 31.9214 34.0833 29.7112 35.5666 27.5678L35.9857 26.9744L36.7125 26.9077C41.8926 26.4738 47.1 26.4738 52.2801 26.9077L52.9995 26.9781L53.4186 27.5715C56.3845 31.8314 58.9893 36.3317 61.206 41.0253L61.5138 41.6891L61.206 42.3455C58.9955 47.0423 56.3903 51.5431 53.4186 55.7993L52.9995 56.4001L52.2801 56.4631C49.662 56.6745 47.0439 56.7857 44.5 56.7857ZM37.6989 53.4334C42.2787 53.7783 46.7213 53.7783 51.2974 53.4334C53.852 49.6925 56.1229 45.7655 58.0911 41.6854C56.1299 37.6016 53.8587 33.6741 51.2974 29.9374C46.7713 29.5888 42.225 29.5888 37.6989 29.9374C35.1355 33.6728 32.8642 37.6004 30.9053 41.6854C32.8776 45.7632 35.1484 49.6899 37.6989 53.4334Z" fill="#00C4F0"/>
</svg>
