<svg width="59" height="42" viewBox="0 0 59 42" fill="none" xmlns="http://www.w3.org/2000/svg">
    <g id="logo">
        <path d="M2.41669 22L14.0233 40L29.5 27L2.41669 22Z" stroke="#00C1EC" stroke-width="4" stroke-linecap="round" stroke-linejoin="round"/>
        <path d="M56.5833 22L44.9768 40L29.5 27L56.5833 22Z" stroke="#00C1EC" stroke-width="4" stroke-linecap="round" stroke-linejoin="round"/>
        <path d="M14.6042 40H44.3959L29.5 27L14.6042 40Z" stroke="#00C1EC" stroke-width="4" stroke-linecap="round" stroke-linejoin="round"/>
        <path d="M13.25 24L29.5 2L45.75 24" stroke="#00C1EC" stroke-width="4" stroke-linejoin="round"/>
    </g>

    <g id="tag">
        <path d="M23.0468 52.4406L26.9531 47.5594L14.3781 37.5L26.9531 27.4406L23.0468 22.5594L7.42185 35.0594C7.05574 35.3521 6.76018 35.7235 6.55707 36.146C6.35396 36.5684 6.2485 37.0312 6.2485 37.5C6.2485 37.9687 6.35396 38.4315 6.55707 38.854C6.76018 39.2765 7.05574 39.6478 7.42185 39.9406L23.0468 52.4406ZM51.9531 22.5594L48.0468 27.4406L60.6218 37.5L48.0468 47.5594L51.9531 52.4406L67.5781 39.9406C67.9442 39.6478 68.2398 39.2765 68.4429 38.854C68.646 38.4315 68.7514 37.9687 68.7514 37.5C68.7514 37.0312 68.646 36.5684 68.4429 36.146C68.2398 35.7235 67.9442 35.3521 67.5781 35.0594L51.9531 22.5594ZM46.8 10.05L34.3 66.3L28.1968 64.9437L40.6968 8.69373L46.8 10.05Z" fill="#00C4F0"/>
    </g>

    <g id="strelkaNapravo">
        <path d="M14.5 1.5L25 12L14.5 22.5" stroke="#E4E4E4" stroke-width="2" stroke-linecap="round" stroke-linejoin="round"/>
        <path d="M25 12H1" stroke="#E4E4E4" stroke-width="2" stroke-linecap="round" stroke-linejoin="round"/>
    </g>

    <g id="strelkaNalevo">
        <path d="M11.5 1.5L1 12L11.5 22.5" stroke="#E4E4E4" stroke-width="2" stroke-linecap="round" stroke-linejoin="round"/>
        <path d="M1 12H25" stroke="#E4E4E4" stroke-width="2" stroke-linecap="round" stroke-linejoin="round"/>
    </g>

    <g id="baseLine">
        <path d="M43.75 6.25H12.5C10.8424 6.25 9.25268 6.90848 8.08058 8.08058C6.90848 9.25268 6.25 10.8424 6.25 12.5V43.75H12.5V12.5H43.75V6.25ZM56.25 18.75H25C23.3424 18.75 21.7527 19.4085 20.5806 20.5806C19.4085 21.7527 18.75 23.3424 18.75 25V56.25H25V25H56.25V18.75ZM62.5 31.25H37.5C35.8424 31.25 34.2527 31.9085 33.0806 33.0806C31.9085 34.2527 31.25 35.8424 31.25 37.5V62.5C31.25 64.1576 31.9085 65.7473 33.0806 66.9194C34.2527 68.0915 35.8424 68.75 37.5 68.75H62.5C65.9375 68.75 68.75 65.9375 68.75 62.5V37.5C68.75 34.0625 65.9375 31.25 62.5 31.25Z" fill="#00C4F0"/>
    </g>

    <g id="frontend">
        <path d="M0 9.75C0 9.75 0 0.375 9.375 0.375H65.625C65.625 0.375 75 0.375 75 9.75V37.875C75 37.875 75 47.25 65.625 47.25H46.875C46.875 50.3766 47.2641 52.7203 48.0469 54.2812H51.5625C52.1841 54.2812 52.7802 54.5282 53.2198 54.9677C53.6593 55.4073 53.9062 56.0034 53.9062 56.625C53.9062 57.2466 53.6593 57.8427 53.2198 58.2823C52.7802 58.7218 52.1841 58.9688 51.5625 58.9688H23.4375C22.8159 58.9688 22.2198 58.7218 21.7802 58.2823C21.3407 57.8427 21.0938 57.2466 21.0938 56.625C21.0938 56.0034 21.3407 55.4073 21.7802 54.9677C22.2198 54.5282 22.8159 54.2812 23.4375 54.2812H26.9531C27.7359 52.7203 28.125 50.3766 28.125 47.25H9.375C9.375 47.25 0 47.25 0 37.875V9.75ZM6.55312 5.74219C6.03823 6.10067 5.62743 6.5891 5.3625 7.15781C4.96293 7.98338 4.73339 8.88085 4.6875 9.79688V37.875C4.6875 39.3984 5.05312 40.2281 5.36719 40.6969C5.69531 41.1891 6.16406 41.5781 6.78281 41.8875C7.57283 42.2702 8.42893 42.4977 9.30469 42.5578L9.42188 42.5625H65.625C67.1484 42.5625 67.9781 42.1969 68.4469 41.8828C68.9618 41.5243 69.3726 41.0359 69.6375 40.4672C70.0202 39.6772 70.2477 38.8211 70.3078 37.9453L70.3125 37.8281V9.75C70.3125 8.22656 69.9469 7.39687 69.6328 6.92812C69.2745 6.41308 68.786 6.00224 68.2172 5.7375C67.3916 5.33793 66.4942 5.10839 65.5781 5.0625H9.375C7.85156 5.0625 7.02187 5.42812 6.55312 5.74219Z" fill="#00C4F0"/>
    </g>

    <g id="elipse">
        <g filter="url(#filter0_d_4_6679)">
        <circle cx="466" cy="506" r="351.5" stroke="#E4E4E4" stroke-width="89" shape-rendering="crispEdges"/>
        </g>
        <g filter="url(#filter1_d_4_6679)">
        <circle cx="1050" cy="784" r="215.5" stroke="#00C4F0" stroke-width="55" shape-rendering="crispEdges"/>
        </g>
        <g filter="url(#filter2_d_4_6679)">
        <circle cx="1116" cy="244" r="161" stroke="#E2A200" stroke-width="34" shape-rendering="crispEdges"/>
        </g>
        <defs>
        <filter id="filter0_d_4_6679" x="0" y="44" width="932" height="932" filterUnits="userSpaceOnUse" color-interpolation-filters="sRGB">
        <feFlood flood-opacity="0" result="BackgroundImageFix"/>
        <feColorMatrix in="SourceAlpha" type="matrix" values="0 0 0 0 0 0 0 0 0 0 0 0 0 0 0 0 0 0 127 0" result="hardAlpha"/>
        <feOffset dy="4"/>
        <feGaussianBlur stdDeviation="35"/>
        <feComposite in2="hardAlpha" operator="out"/>
        <feColorMatrix type="matrix" values="0 0 0 0 1 0 0 0 0 1 0 0 0 0 1 0 0 0 0.25 0"/>
        <feBlend mode="normal" in2="BackgroundImageFix" result="effect1_dropShadow_4_6679"/>
        <feBlend mode="normal" in="SourceGraphic" in2="effect1_dropShadow_4_6679" result="shape"/>
        </filter>
        <filter id="filter1_d_4_6679" x="737" y="475" width="626" height="626" filterUnits="userSpaceOnUse" color-interpolation-filters="sRGB">
        <feFlood flood-opacity="0" result="BackgroundImageFix"/>
        <feColorMatrix in="SourceAlpha" type="matrix" values="0 0 0 0 0 0 0 0 0 0 0 0 0 0 0 0 0 0 127 0" result="hardAlpha"/>
        <feOffset dy="4"/>
        <feGaussianBlur stdDeviation="35"/>
        <feComposite in2="hardAlpha" operator="out"/>
        <feColorMatrix type="matrix" values="0 0 0 0 0 0 0 0 0 0.756863 0 0 0 0 0.92549 0 0 0 0.25 0"/>
        <feBlend mode="normal" in2="BackgroundImageFix" result="effect1_dropShadow_4_6679"/>
        <feBlend mode="normal" in="SourceGraphic" in2="effect1_dropShadow_4_6679" result="shape"/>
        </filter>
        <filter id="filter2_d_4_6679" x="868" y="0" width="496" height="496" filterUnits="userSpaceOnUse" color-interpolation-filters="sRGB">
        <feFlood flood-opacity="0" result="BackgroundImageFix"/>
        <feColorMatrix in="SourceAlpha" type="matrix" values="0 0 0 0 0 0 0 0 0 0 0 0 0 0 0 0 0 0 127 0" result="hardAlpha"/>
        <feOffset dy="4"/>
        <feGaussianBlur stdDeviation="35"/>
        <feComposite in2="hardAlpha" operator="out"/>
        <feColorMatrix type="matrix" values="0 0 0 0 0.886275 0 0 0 0 0.635294 0 0 0 0 0 0 0 0 0.25 0"/>
        <feBlend mode="normal" in2="BackgroundImageFix" result="effect1_dropShadow_4_6679"/>
        <feBlend mode="normal" in="SourceGraphic" in2="effect1_dropShadow_4_6679" result="shape"/>
        </filter>
        </defs>
    </g>

    <g id="reactIcon">
        <path d="M109.828 17.125H27.1717C24.5071 17.125 21.9517 18.1835 20.0676 20.0676C18.1835 21.9517 17.125 24.5071 17.125 27.1717V109.828C17.125 112.493 18.1835 115.048 20.0676 116.932C21.9517 118.817 24.5071 119.875 27.1717 119.875H109.828C111.148 119.875 112.454 119.615 113.673 119.11C114.892 118.605 115.999 117.865 116.932 116.932C117.865 115.999 118.605 114.892 119.11 113.673C119.615 112.454 119.875 111.148 119.875 109.828V27.1717C119.875 25.8523 119.615 24.5459 119.11 23.327C118.605 22.1081 117.865 21.0005 116.932 20.0676C115.999 19.1347 114.892 18.3946 113.673 17.8898C112.454 17.3849 111.148 17.125 109.828 17.125ZM76.72 74.2083H63.8762V110.97H53.6583V74.2083H40.8146V65.8742H76.72V74.2083ZM109.828 104.348C109.002 106.105 107.67 107.576 106.004 108.573C104.25 109.652 102.317 110.406 100.295 110.799C98.042 111.264 95.7463 111.494 93.4454 111.484C91.0911 111.482 88.7415 111.272 86.4242 110.856C84.4545 110.452 82.5387 109.82 80.7158 108.972V99.2108L80.3733 98.8683H80.7158V99.2679C82.4328 100.607 84.3624 101.649 86.4242 102.35C88.4831 103.134 90.6717 103.522 92.8746 103.492C94.0257 103.512 95.1752 103.397 96.2996 103.15C97.1441 102.952 97.9529 102.625 98.6971 102.179C99.2797 101.824 99.769 101.335 100.124 100.752C100.476 100.089 100.63 99.3384 100.569 98.59C100.509 97.8416 100.235 97.1261 99.7817 96.5279C99.245 95.7756 98.5663 95.1356 97.7837 94.6442C96.8335 93.976 95.8202 93.4025 94.7583 92.9317L90.9338 91.3333C87.9062 90.0864 85.2237 88.1284 83.1133 85.625C81.3472 83.496 80.4141 80.7982 80.4875 78.0329C80.421 75.9322 80.8926 73.8493 81.8575 71.9821C82.7783 70.3545 84.0689 68.9662 85.625 67.9292C87.3588 66.7757 89.2959 65.9621 91.3333 65.5317C93.5607 65.019 95.8407 64.77 98.1263 64.7896C100.208 64.7605 102.288 64.8941 104.348 65.1892C106.063 65.4572 107.746 65.897 109.372 66.5021V75.9208C108.62 75.3852 107.817 74.9263 106.974 74.5508C106.066 74.1602 105.132 73.8358 104.177 73.5804C103.262 73.3126 102.327 73.1217 101.38 73.0096C100.507 72.9272 99.6275 72.9272 98.7542 73.0096C97.6786 72.9918 96.6049 73.1068 95.5575 73.3521C94.6983 73.5323 93.8709 73.8401 93.1029 74.2654C92.5035 74.6186 91.9952 75.1074 91.6187 75.6925C91.2771 76.261 91.0993 76.913 91.105 77.5763C91.0911 78.2843 91.2899 78.9803 91.6758 79.5742C92.1447 80.2225 92.7245 80.7829 93.3883 81.2296C94.1932 81.8703 95.0754 82.4073 96.0142 82.8279L99.6104 84.4263C101.264 85.1098 102.866 85.9111 104.405 86.8238C105.759 87.5644 106.991 88.5076 108.059 89.6208C109.105 90.6349 109.923 91.8611 110.456 93.2171C111.004 94.7754 111.274 96.4176 111.255 98.0692C111.215 100.201 110.728 102.301 109.828 104.234V104.348Z" fill="#00C4F0"/>
    </g>

    <g id="cssIcon">
        <path d="M18.1653 13.6197H85.8303L79.677 83.1004L51.9263 90.9524L24.3273 83.096L18.1653 13.6197ZM73.2333 27.8374L30.7667 27.8287L31.4513 36.2744L64.077 36.283L63.258 45.0364H41.86L42.6357 53.326H62.556L61.3773 64.6794L52 67.2707L42.4797 64.6577L41.8687 57.8587H33.462L34.398 70.2824L52 75.764L69.3117 70.837L73.2333 27.8374Z" fill="#00C4F0"/>
    </g>

    <g id="backgroundHomePage">
        <g filter="url(#filter0_d_4_6748)">
        <circle cx="439.5" cy="439.972" r="254" stroke="#00C4F0" stroke-width="67" shape-rendering="crispEdges"/>
        </g>
        <circle cx="216" cy="229" r="45" fill="url(#paint0_linear_4_6748)"/>
        <path d="M185 395C185 419.853 164.853 440 140 440C115.147 440 95 419.853 95 395C95 370.147 115.147 350 140 350C164.853 350 185 370.147 185 395Z" fill="url(#paint1_linear_4_6748)"/>
        <circle cx="614" cy="197" r="45" fill="url(#paint2_linear_4_6748)"/>
        <circle cx="171" cy="583" r="45" fill="url(#paint3_linear_4_6748)"/>
        <path d="M131.062 387.516L128.422 391.125C127.266 390.266 125.938 389.812 124.438 389.812C120.484 389.812 117.781 392.875 117.781 396.797C117.781 400.531 120.422 403.719 124.438 403.719C127.688 403.719 130.438 401.672 131.078 397.891H124.047V393.578H135.375C135.672 394.594 135.812 395.688 135.812 396.797C135.812 403.094 130.891 408 124.438 408C118.234 408 113.016 403.312 113.016 396.797C113.016 390.516 117.969 385.578 124.438 385.578C126.891 385.578 129.156 386.219 131.062 387.516ZM138.953 408V385.594H143.641V408H138.953ZM146.703 385.594H166.125V389.922H158.75V408H154.062V389.922H146.703V385.594Z" fill="#00C4F0"/>
        <path d="M196.055 227.795V233.104L211.102 240.451V234.949L201.135 230.449L211.102 225.967V220.465L196.055 227.795ZM230.314 212.977L214.266 248.045H219.803L235.852 212.977H230.314Z" fill="#00C4F0"/>
        <path d="M580.086 207H576.582V190.207H584.797C586.227 190.207 587.211 190.477 588.02 190.992C589.379 191.824 590.258 193.312 590.258 195.234C590.258 196.324 589.953 197.309 589.402 198.105C588.816 198.961 588.031 199.5 587.141 199.805L586.988 199.863L591.254 207H587.223L583.25 200.215H580.086V207ZM580.086 197.004H584.34C585.008 197.004 585.324 196.969 585.617 196.84C586.273 196.57 586.801 196.031 586.801 195.234C586.801 194.449 586.297 193.887 585.617 193.617C585.336 193.488 585.02 193.441 584.328 193.441H580.086V197.004ZM593.105 190.195H604.93V193.43H596.621V196.195H602.961V199.395H596.621V203.766H604.93V207H593.105V190.195ZM619.133 207L618.078 204.199H610.66L609.629 207H605.984L612.652 190.207H616.121L622.777 207H619.133ZM614.387 194.297L611.867 201.023H616.871L614.387 194.297ZM639.535 195.961L636.219 197.039C635.516 194.754 633.781 193.383 631.414 193.383C628.473 193.383 626.457 195.656 626.457 198.598C626.457 201.398 628.426 203.789 631.414 203.789C633.77 203.789 635.504 202.441 636.23 200.074L639.57 201.105C638.562 204.633 635.258 207 631.414 207C626.738 207 622.848 203.402 622.848 198.598C622.848 193.887 626.562 190.184 631.414 190.184C635.129 190.184 638.41 192.223 639.535 195.961ZM640.027 190.195H654.594V193.441H649.062V207H645.547V193.441H640.027V190.195Z" fill="#00C4F0"/>
        <path d="M151.842 595.963L154.355 591.34C154.795 591.621 155.287 591.727 155.85 591.727C157.238 591.727 158.311 590.777 158.627 589.705C158.768 589.248 158.82 588.615 158.82 587.701V571.793H164.076V586.348C164.076 588.844 163.988 589.934 163.725 590.953C162.881 594.346 159.752 597 155.85 597C154.426 597 153.055 596.648 151.842 595.963ZM167.609 592.641L170.773 588.861C172.865 590.777 175.502 592.113 178.262 592.113C180.406 592.113 182.797 591.234 182.797 589.301C182.797 586.945 179.158 586.646 175.449 585.873C171.23 584.994 167.855 583.236 167.855 579.193C167.855 575.062 171.072 571.775 176.82 571.775C180.002 571.775 183.324 572.848 186.119 575.045L183.131 578.789C181.461 577.383 179.018 576.539 176.75 576.539C174.904 576.539 172.953 577.207 172.953 578.719C172.953 580.371 175.027 580.846 178.596 581.443C182.832 582.146 187.965 583.57 187.965 589.283C187.965 593.73 183.764 597 178.35 597C174.992 597 171.107 595.77 167.609 592.641Z" fill="#00C4F0"/>
        <defs>
        <filter id="filter0_d_4_6748" x="0" y="0.47229" width="879" height="879" filterUnits="userSpaceOnUse" color-interpolation-filters="sRGB">
        <feFlood flood-opacity="0" result="BackgroundImageFix"/>
        <feColorMatrix in="SourceAlpha" type="matrix" values="0 0 0 0 0 0 0 0 0 0 0 0 0 0 0 0 0 0 127 0" result="hardAlpha"/>
        <feOffset/>
        <feGaussianBlur stdDeviation="76"/>
        <feComposite in2="hardAlpha" operator="out"/>
        <feColorMatrix type="matrix" values="0 0 0 0 0 0 0 0 0 0.768627 0 0 0 0 0.941176 0 0 0 0.42 0"/>
        <feBlend mode="normal" in2="BackgroundImageFix" result="effect1_dropShadow_4_6748"/>
        <feBlend mode="normal" in="SourceGraphic" in2="effect1_dropShadow_4_6748" result="shape"/>
        </filter>
        <linearGradient id="paint0_linear_4_6748" x1="171" y1="184" x2="267.755" y2="267.157" gradientUnits="userSpaceOnUse">
        <stop stop-color="#414141"/>
        <stop offset="1" stop-color="#2D2D2D"/>
        </linearGradient>
        <linearGradient id="paint1_linear_4_6748" x1="95" y1="350" x2="191.755" y2="433.157" gradientUnits="userSpaceOnUse">
        <stop stop-color="#414141"/>
        <stop offset="1" stop-color="#2D2D2D"/>
        </linearGradient>
        <linearGradient id="paint2_linear_4_6748" x1="569" y1="152" x2="665.755" y2="235.157" gradientUnits="userSpaceOnUse">
        <stop stop-color="#414141"/>
        <stop offset="1" stop-color="#2D2D2D"/>
        </linearGradient>
        <linearGradient id="paint3_linear_4_6748" x1="126" y1="538" x2="222.755" y2="621.157" gradientUnits="userSpaceOnUse">
        <stop stop-color="#414141"/>
        <stop offset="1" stop-color="#2D2D2D"/>
        </linearGradient>
        </defs>
    </g>

</svg>
